<?xml version="1.0" standalone="no"?><!DOCTYPE svg PUBLIC "-//W3C//DTD SVG 1.1//EN" "http://www.w3.org/Graphics/SVG/1.1/DTD/svg11.dtd"><svg t="1698850290133" class="icon" viewBox="0 0 1024 1024" version="1.1" xmlns="http://www.w3.org/2000/svg" p-id="3934" xmlns:xlink="http://www.w3.org/1999/xlink" width="200" height="200"><path d="M773.302 494.262v261.95c0 16.542-13.458 30-30 30h-29.26c-15.793 0-28.944-12.343-29.94-28.099a20.43 20.43 0 0 1-0.04-1.262v-67.18c0-29.379-24.152-53.28-53.84-53.28l-151.239 0.011c-29.49 0-53.481 23.825-53.481 53.109v67.21c0 0.34-0.009 0.68-0.026 1.02-0.815 15.965-13.977 28.471-29.964 28.471h-29.41c-16.542 0-30-13.458-30-30v-310.81c0-29.378-24.162-53.28-53.86-53.28h-10.79c-24.776 0-46.27 16.613-52.267 40.399l-5.969 23.696c-4.979 19.79-22.774 33.615-43.274 33.615h-35.42c-24.604 0-44.62-19.931-44.62-44.43v-146.56c0-51.435 42.105-93.28 93.86-93.28h73.86c39.605 0 96.231 4.931 141.085 28.423 46.615 24.414 71.255 64.031 71.255 114.567 0 41.437 4.502 94.615 4.547 95.147 0.048 0.566 0.073 1.135 0.073 1.703 0 56.32 46.986 102.14 104.74 102.14s104.74-45.82 104.74-102.14v-20.22a19.999 19.999 0 0 1 26.636-18.867c37.445 13.17 62.604 48.513 62.604 87.947z m20.05-142.14c-26.619 0-51.207 15.527-62.641 39.558a20.001 20.001 0 0 0 5.343 24.028c23.703 19.531 37.298 48.163 37.298 78.554v124.13c0 0.328 0.008 0.657 0.024 0.985 0.556 11.275 7.252 21.124 17.506 25.792 0.232 0.108 0.469 0.213 0.706 0.313l-0.001 0.001 0.4 0.17c0.215 0.091 0.431 0.179 0.648 0.262l27.863 11.569c0.591 0.267 1.193 0.51 1.821 0.736a29.717 29.717 0 0 0 10.271 1.813c16.542 0 30-13.458 30-30v-209.05c0.002-37.97-31.06-68.861-69.238-68.861z" fill="#FFFFFF" p-id="3935"></path><path d="M484.521 402.432c-10.186 0-18.744-7.654-19.876-17.776-11.33-101.273-97.458-177.644-200.344-177.644h-123.09c-24.604 0-44.62-19.927-44.62-44.42 0-24.499 20.012-44.43 44.61-44.43h123.1c73.315 0 143.488 27.001 197.592 76.03 53.833 48.782 87.089 114.984 93.644 186.412a20 20 0 0 1-19.916 21.828h-51.1z" fill="#A3D6FF" p-id="3936"></path><path d="M578.382 582.142c-29.905 0-59.373-13.729-80.848-37.669-21.244-23.681-32.943-54.535-32.943-86.881v-54.85h227.581v54.85c0 32.346-11.699 63.2-32.942 86.881-21.475 23.939-50.943 37.669-80.848 37.669z" fill="#FADA17" p-id="3937"></path><path d="M559.099 925.888c-71.089 0-140.421-11.546-206.07-34.317-68.142-23.636-129.349-58.401-181.923-103.331-8.397-7.176-9.387-19.801-2.21-28.197 7.176-8.398 19.801-9.388 28.198-2.211 199.61 170.586 524.402 170.586 724.013 0 8.396-7.178 21.021-6.186 28.197 2.211s6.187 21.021-2.211 28.197c-52.573 44.93-113.781 79.695-181.923 103.331-65.65 22.771-134.982 34.317-206.071 34.317z m323.492-504.856v209.05c0 27.57-22.43 50-50 50a49.67 49.67 0 0 1-17.075-3.005 45.883 45.883 0 0 1-2.897-1.159l-19.319-8.021v88.364c0 27.57-22.43 50-50 50h-29.26c-26.32 0-48.24-20.57-49.9-46.83-0.05-0.84-0.08-1.69-0.08-2.53v-67.18c0-18.35-15.18-33.28-33.84-33.28l-151.24 0.01c-18.46 0-33.48 14.86-33.48 33.11v67.21c0 0.68-0.02 1.36-0.05 2.04-1.36 26.61-23.29 47.45-49.94 47.45H366.1c-27.57 0-50-22.43-50-50V445.45c0-18.35-15.19-33.28-33.86-33.28h-10.79c-15.6 0-29.12 10.4-32.87 25.28l-5.97 23.69c-7.22 28.7-32.99 48.74-62.67 48.74h-35.42c-35.63 0-64.62-28.9-64.62-64.43V298.89c0-32.46 13.8-61.77 35.86-82.43-17.56-11.51-29.17-31.34-29.17-53.82 0-35.52 28.99-64.43 64.61-64.43h123.1c78.29 0 153.23 28.84 211.02 81.21 57.56 52.16 93.12 122.97 100.13 199.41 0.12 1.32 0.18 2.65 0.17 3.96h136.55v1.416c0.157-0.357 0.313-0.715 0.481-1.069 14.73-30.96 46.406-50.965 80.7-50.965 49.208 0 89.24 39.862 89.24 88.86zM484.59 422.79v34.85c0 56.67 42.95 104.55 93.79 104.55s93.79-47.88 93.79-104.55v-34.85H484.59z m-368-260.15c0 13.46 11.04 24.42 24.62 24.42H264.3c113.86 0 207.94 85.65 220.22 195.42H535.62C523.07 245.72 406.19 138.21 264.3 138.21H141.2c-13.57 0-24.61 10.96-24.61 24.43zM753.3 494.31c0-28.76-16.78-53.68-41.13-65.67v29c0 18.79-3.43 37.19-10.2 54.68-6.55 16.93-15.92 32.26-27.85 45.56-12.2 13.6-26.44 24.36-42.3 31.99-17 8.18-34.98 12.32-53.44 12.32s-36.44-4.14-53.44-12.32c-15.86-7.63-30.09-18.39-42.29-31.99-11.93-13.3-21.31-28.63-27.86-45.56-6.77-17.49-10.2-35.89-10.2-54.68V385.4c-10.89-90.38-88.12-158.34-180.29-158.34h-95.19c-33.73 6.76-59.21 36.4-59.21 71.83v146.56c0 13.47 11.05 24.43 24.62 24.43h35.42c11.32 0 21.14-7.61 23.88-18.5l5.97-23.7c8.24-32.68 37.7-55.51 71.66-55.51h10.79c40.73 0 73.86 32.88 73.86 73.28v310.81c0 5.52 4.48 10 10 10h29.41c5.35 0 9.72-4.2 9.99-9.49v-67.21c0-40.31 32.87-73.11 73.48-73.11l151.24-0.01c40.72 0 73.84 32.87 73.84 73.28v67.18c0.33 5.22 4.68 9.36 9.98 9.36h29.26c5.52 0 10-4.48 10-10V494.31z m89.291-73.278c0-26.94-22.09-48.86-49.24-48.86-19.37 0-36.63 11.44-44.58 28.15 27.21 22.42 44.58 56.23 44.58 93.99v124.13a9.98 9.98 0 0 0 5.94 8.63c0.04 0.02 0.07 0.04 0.11 0.05l0.4 0.17 0.09 0.03 28.66 11.9c0.2 0.1 0.4 0.18 0.6 0.25 1.07 0.4 2.23 0.61 3.44 0.61 5.52 0 10-4.48 10-10v-209.05z" fill="#BD7800" p-id="3938"></path></svg>